<?xml version="1.0" standalone="no"?>
<!DOCTYPE svg PUBLIC "-//W3C//DTD SVG 20010904//EN"
 "http://www.w3.org/TR/2001/REC-SVG-20010904/DTD/svg10.dtd">
<svg version="1.0" xmlns="http://www.w3.org/2000/svg"
 width="1280.000000pt" height="1280.000000pt" viewBox="0 0 1280.000000 1280.000000"
 preserveAspectRatio="xMidYMid meet">
<metadata>
Created by potrace 1.14, written by Peter Selinger 2001-2017
</metadata>
<g transform="translate(0.000000,1280.000000) scale(0.100000,-0.100000)"
fill="#000000" stroke="none">
<path d="M6120 12797 c-3 -2 -59 -7 -125 -10 -711 -37 -1499 -228 -2180 -530
-1850 -820 -3201 -2457 -3654 -4427 -39 -169 -93 -467 -106 -580 -3 -30 -8
-71 -10 -90 -9 -72 -14 -117 -20 -190 -4 -41 -9 -93 -11 -115 -12 -100 -11
-768 2 -920 71 -868 274 -1618 642 -2364 526 -1068 1348 -1974 2367 -2610 754
-470 1599 -776 2485 -900 315 -44 502 -56 880 -56 466 0 781 26 1145 95 55 11
115 22 132 25 97 16 353 79 528 130 922 269 1791 756 2505 1404 997 906 1679
2089 1959 3401 36 166 80 431 96 565 33 297 40 429 40 765 0 448 -21 721 -85
1085 -10 61 -22 126 -25 145 -13 75 -78 352 -112 475 -408 1488 -1349 2787
-2638 3640 -653 433 -1347 730 -2105 904 -96 22 -191 43 -210 46 -19 3 -84 15
-145 25 -148 26 -387 57 -510 65 -55 4 -109 9 -120 12 -27 6 -719 16 -725 10z"/>
</g>
</svg>
